<?xml version="1.0" standalone="no"?>
<!DOCTYPE svg PUBLIC "-//W3C//DTD SVG 20010904//EN"
 "http://www.w3.org/TR/2001/REC-SVG-20010904/DTD/svg10.dtd">
<svg version="1.0" xmlns="http://www.w3.org/2000/svg"
 width="631.000000pt" height="631.000000pt" viewBox="0 0 631.000000 631.000000"
 preserveAspectRatio="xMidYMid meet">
<metadata>
Created by potrace 1.14, written by Peter Selinger 2001-2017
</metadata>
<g transform="translate(0.000000,631.000000) scale(0.100000,-0.100000)"
fill="#000000" stroke="none">
<path d="M6120 5685 c-63 -14 -133 -27 -155 -30 -22 -3 -47 -8 -55 -10 -8 -3
-91 -20 -185 -39 -93 -20 -278 -57 -410 -85 -377 -78 -407 -84 -470 -96 -16
-3 -43 -8 -60 -12 -16 -4 -34 -8 -40 -9 -179 -36 -326 -66 -346 -70 -13 -3
-41 -9 -62 -14 -21 -4 -40 -10 -44 -13 -4 -5 -7 -1581 -4 -1869 1 -45 2 -47
29 -42 132 23 345 65 351 68 4 3 18 7 32 10 65 12 76 22 85 78 4 29 9 346 10
703 1 358 3 660 3 672 1 14 7 21 19 21 9 -1 54 7 100 16 45 10 94 20 109 22
15 3 83 16 151 30 67 13 140 27 160 30 20 3 44 7 53 10 15 4 17 -53 17 -711
-1 -394 1 -717 3 -720 2 -2 38 3 79 11 41 8 89 17 105 20 40 7 195 35 220 40
11 2 31 6 45 9 14 3 36 7 50 10 14 3 48 10 75 15 72 14 81 17 179 44 49 14 91
28 94 30 13 14 16 163 16 996 1 898 1 905 -19 907 -11 1 -72 -9 -135 -22z"/>
<path d="M3875 5224 c-115 -23 -221 -45 -235 -47 -24 -5 -520 -105 -550 -112
-8 -2 -127 -26 -265 -54 -479 -97 -640 -132 -650 -143 -2 -2 -7 -19 -10 -37
-3 -19 -8 -38 -11 -42 -6 -11 -8 -608 -2 -615 3 -2 25 0 49 5 24 5 60 12 79
15 58 9 193 36 233 46 124 33 116 28 128 73 7 23 14 72 15 109 3 78 7 88 38
88 13 0 68 9 121 20 123 25 142 29 185 36 19 3 51 9 70 14 19 5 51 12 70 15
19 3 52 10 73 14 20 5 39 6 41 2 2 -3 4 -61 4 -128 1 -106 -2 -123 -16 -127
-15 -4 -74 -16 -152 -31 -33 -6 -276 -56 -545 -111 -121 -25 -231 -48 -245
-50 -93 -17 -123 -35 -141 -83 -6 -14 -10 -123 -11 -243 0 -198 -2 -218 -17
-218 -9 0 -23 6 -29 12 -10 10 -15 10 -20 1 -10 -15 -5 -2050 5 -2091 7 -29
18 -39 79 -70 39 -21 91 -45 115 -55 24 -10 53 -22 64 -27 11 -5 63 -26 116
-48 l96 -38 1 300 c0 166 1 306 2 311 1 10 27 -69 135 -410 94 -298 91 -292
162 -331 64 -34 269 -124 284 -124 10 0 16 13 132 280 47 107 94 214 105 238
l19 43 0 -303 c0 -337 2 -353 66 -394 31 -21 727 -314 745 -314 13 0 9 2078
-4 2107 -12 29 -113 81 -369 189 -110 47 -213 91 -230 99 -137 60 -174 73
-183 62 -4 -7 -28 -57 -52 -112 -23 -55 -53 -123 -66 -152 -13 -28 -24 -54
-24 -57 0 -3 -11 -29 -24 -58 -14 -29 -77 -172 -141 -318 -65 -146 -120 -268
-124 -273 -4 -4 -20 34 -36 85 -15 51 -38 125 -51 163 -39 121 -106 330 -108
340 -1 6 -25 82 -53 170 -29 88 -55 172 -58 186 l-6 26 190 37 c105 21 204 40
219 42 15 3 126 25 247 50 657 134 777 163 792 193 4 9 8 438 9 954 l1 937
-26 -1 c-14 -1 -120 -21 -236 -45z m-618 -1464 c0 -65 -3 -119 -6 -118 -7 2
-32 -3 -236 -44 -82 -17 -163 -32 -180 -35 -16 -3 -57 -11 -90 -19 -102 -23
-95 -30 -92 101 2 107 4 116 22 120 60 13 278 56 307 61 18 3 85 16 148 29 63
13 118 24 121 24 3 1 6 -53 6 -119z"/>
<path d="M985 4979 c-39 -8 -396 -77 -445 -85 -14 -3 -32 -7 -40 -9 -8 -2 -28
-7 -45 -9 -16 -3 -120 -24 -229 -46 -110 -22 -200 -40 -200 -40 -1 0 2 -2237
3 -2263 1 -17 9 -18 76 -3 11 3 155 32 320 66 165 34 309 64 320 66 11 2 33 7
50 10 16 3 137 27 270 55 132 27 254 52 270 55 17 2 37 7 45 9 8 2 29 7 45 9
77 13 455 96 497 109 26 8 49 13 51 11 8 -8 25 21 33 56 11 54 13 1416 2 1486
l-10 60 -82 46 c-100 57 -660 340 -774 391 -88 39 -93 40 -157 26z m20 -582
l140 -72 1 -556 1 -557 -61 -12 c-33 -7 -72 -14 -86 -16 -14 -3 -72 -14 -129
-25 -57 -12 -114 -23 -125 -25 -12 -2 -63 -12 -113 -22 l-93 -18 -1 25 c0 14
-1 312 0 661 l0 635 63 12 c35 7 77 15 93 19 62 12 121 22 145 22 14 1 88 -31
165 -71z"/>
</g>
</svg>
