<!--?xml version="1.0" encoding="UTF-8" standalone="no"?-->


<svg xmlns="http://www.w3.org/2000/svg" width="100%" height="100%" viewBox="0 0 730 610" class="active">
    <style>
        #path {
            stroke-dasharray: 5907.82861328125px;            
            animation: animate-logo 6s forwards;
        }
        @keyframes animate-logo {
        0% {
            stroke-dashoffset: 11815.6572265625px;
            fill: #50706b;
        }
        30% {
            stroke-dashoffset: 11815.6572265625px;
            fill: transparent;
        }
        100% {
            stroke-dashoffset: 5907.82861328125px;
            fill: transparent;
        }
    </style>

  <path id="path" stroke="#6fb9ad" stroke-width="10" d="M 486.00,106.00
           C 486.00,106.00 604.00,81.79 604.00,81.79
             604.00,81.79 644.00,73.58 644.00,73.58
             644.00,73.58 673.00,68.00 673.00,68.00
             673.00,68.00 673.00,240.00 673.00,240.00
             673.00,240.00 672.01,247.27 672.01,247.27
             672.01,247.27 656.00,251.79 656.00,251.79
             656.00,251.79 623.00,258.42 623.00,258.42
             623.00,258.42 598.00,263.00 598.00,263.00
             598.00,263.00 598.00,119.00 598.00,119.00
             598.00,119.00 582.00,122.00 582.00,122.00
             582.00,122.00 525.00,133.00 525.00,133.00
             525.00,133.00 525.00,270.00 525.00,270.00
             525.00,270.00 523.40,278.07 523.40,278.07
             523.40,278.07 513.00,281.00 513.00,281.00
             513.00,281.00 486.00,286.00 486.00,286.00
             486.00,286.00 486.00,106.00 486.00,106.00 Z
           M 272.00,208.00
           C 272.00,208.00 272.00,158.00 272.00,158.00
             272.00,158.00 273.57,150.16 273.57,150.16
             273.57,150.16 286.00,147.00 286.00,147.00
             286.00,147.00 315.00,141.00 315.00,141.00
             315.00,141.00 412.00,121.20 412.00,121.20
             412.00,121.20 459.00,112.00 459.00,112.00
             459.00,112.00 459.00,284.00 459.00,284.00
             459.00,284.00 458.01,291.27 458.01,291.27
             458.01,291.27 449.00,294.20 449.00,294.20
             449.00,294.20 425.00,299.20 425.00,299.20
             425.00,299.20 360.00,312.42 360.00,312.42
             360.00,312.42 311.00,322.00 311.00,322.00
             311.00,322.00 323.98,363.00 323.98,363.00
             323.98,363.00 349.00,442.00 349.00,442.00
             349.00,442.00 369.42,396.00 369.42,396.00
             369.42,396.00 397.00,333.00 397.00,333.00
             397.00,333.00 415.00,340.58 415.00,340.58
             415.00,340.58 450.00,355.58 450.00,355.58
             450.00,355.58 465.98,363.49 465.98,363.49
             465.98,363.49 467.00,371.00 467.00,371.00
             467.00,371.00 467.00,564.00 467.00,564.00
             467.00,564.00 413.00,541.58 413.00,541.58
             397.56,534.99 397.02,536.06 397.00,526.00
             397.00,526.00 397.00,471.00 397.00,471.00
             397.00,463.65 397.80,448.35 396.00,442.00
             396.00,442.00 383.42,473.00 383.42,473.00
             383.42,473.00 363.00,520.00 363.00,520.00
             363.00,520.00 345.00,512.42 345.00,512.42
             345.00,512.42 335.81,507.37 335.81,507.37
             335.81,507.37 332.00,498.00 332.00,498.00
             332.00,498.00 325.28,476.00 325.28,476.00
             325.28,476.00 310.02,428.00 310.02,428.00
             310.02,428.00 301.00,400.00 301.00,400.00
             301.00,400.00 301.00,493.00 301.00,493.00
             301.00,493.00 276.00,482.72 276.00,482.72
             276.00,482.72 265.99,477.36 265.99,477.36
             265.99,477.36 265.00,470.00 265.00,470.00
             265.00,470.00 265.00,277.00 265.00,277.00
             265.00,277.00 272.00,279.00 272.00,279.00
             272.00,279.00 272.00,232.00 272.00,232.00
             272.00,229.64 271.58,225.80 273.57,224.16
             275.25,222.77 284.36,221.33 287.00,220.80
             287.00,220.80 320.00,214.00 320.00,214.00
             320.00,214.00 366.00,204.60 366.00,204.60
             369.76,203.85 379.89,202.66 381.98,199.57
             383.22,197.74 383.00,194.18 383.00,192.00
             383.00,192.00 383.00,163.00 383.00,163.00
             383.00,163.00 332.00,173.20 332.00,173.20
             332.00,173.20 311.00,177.00 311.00,177.00
             311.00,177.00 311.00,194.00 311.00,194.00
             311.00,194.00 309.40,200.07 309.40,200.07
             309.40,200.07 299.00,203.00 299.00,203.00
             299.00,203.00 272.00,208.00 272.00,208.00 Z
           M 60.00,158.00
           C 60.00,158.00 129.00,144.20 129.00,144.20
             129.00,144.20 156.00,139.26 156.00,139.26
             156.00,139.26 173.00,146.98 173.00,146.98
             173.00,146.98 206.00,163.63 206.00,163.63
             206.00,163.63 235.00,178.22 235.00,178.22
             235.00,178.22 245.40,184.39 245.40,184.39
             245.40,184.39 247.00,193.00 247.00,193.00
             247.00,193.00 247.00,327.00 247.00,327.00
             247.00,327.00 245.40,335.15 245.40,335.15
             245.40,335.15 233.00,338.60 233.00,338.60
             233.00,338.60 204.00,344.58 204.00,344.58
             204.00,344.58 133.00,359.00 133.00,359.00
             133.00,359.00 60.00,374.00 60.00,374.00
             60.00,374.00 60.00,158.00 60.00,158.00 Z
           M 172.00,196.00
           C 172.00,196.00 138.00,178.73 138.00,178.73
             138.00,178.73 125.00,180.58 125.00,180.58
             125.00,180.58 98.00,186.00 98.00,186.00
             99.91,193.86 99.00,223.91 99.00,234.00
             99.00,234.00 99.00,330.00 99.00,330.00
             99.00,330.00 172.00,316.00 172.00,316.00
             172.00,316.00 172.00,196.00 172.00,196.00 Z
           M 383.00,237.00
           C 383.00,237.00 311.00,251.00 311.00,251.00
             311.00,251.00 310.00,287.00 310.00,287.00
             310.00,287.00 365.00,276.00 365.00,276.00
             368.43,275.31 380.12,273.71 382.01,271.28
             383.26,269.67 383.00,265.99 383.00,264.00
             383.00,264.00 383.00,237.00 383.00,237.00 Z
           M 265.00,277.00
           C 265.00,277.00 290.00,286.85 290.00,286.85
             290.00,286.85 300.49,292.39 300.49,292.39
             300.49,292.39 305.72,306.00 305.72,306.00
             305.72,306.00 314.67,334.00 314.67,334.00
             314.67,334.00 349.00,442.00 349.00,442.00
             349.00,442.00 369.42,396.00 369.42,396.00
             369.42,396.00 397.00,333.00 397.00,333.00
             397.00,333.00 415.00,340.58 415.00,340.58
             415.00,340.58 450.00,355.58 450.00,355.58
             450.00,355.58 465.98,363.49 465.98,363.49
             465.98,363.49 467.00,371.00 467.00,371.00
             467.00,371.00 467.00,564.00 467.00,564.00
             467.00,564.00 413.00,541.58 413.00,541.58
             397.56,534.99 397.02,536.06 397.00,526.00
             397.00,526.00 397.00,471.00 397.00,471.00
             397.00,463.65 397.80,448.35 396.00,442.00
             396.00,442.00 383.42,473.00 383.42,473.00
             383.42,473.00 363.00,520.00 363.00,520.00
             363.00,520.00 345.00,512.42 345.00,512.42
             345.00,512.42 335.81,507.37 335.81,507.37
             335.81,507.37 332.00,498.00 332.00,498.00
             332.00,498.00 325.28,476.00 325.28,476.00
             325.28,476.00 310.02,428.00 310.02,428.00
             310.02,428.00 301.00,400.00 301.00,400.00
             301.00,400.00 301.00,493.00 301.00,493.00
             301.00,493.00 276.00,482.72 276.00,482.72
             276.00,482.72 265.99,477.36 265.99,477.36
             265.99,477.36 265.00,470.00 265.00,470.00
             265.00,470.00 265.00,277.00 265.00,277.00 Z"></path>
</svg>
